<?xml version="1.0" encoding="utf-8"?>
<!-- Generator: Adobe Illustrator 26.5.1, SVG Export Plug-In . SVG Version: 6.00 Build 0)  -->
<svg version="1.1" id="图层_1" xmlns="http://www.w3.org/2000/svg" xmlns:xlink="http://www.w3.org/1999/xlink" x="0px" y="0px"
	 viewBox="0 0 123 24" style="enable-background:new 0 0 123 24;" xml:space="preserve">
<style type="text/css">
	.st0{fill:#2E3034;}
	.st1{fill:url(#路径_00000083046472351427791860000014652689507367177371_);}
	.st2{fill:url(#形状_00000052094367776945061930000010278875391430702767_);}
	.st3{fill:#1BE1F6;}
</style>
<g id="logo" transform="translate(0.000000, 6.000000)">
	<path id="路径" class="st0" d="M110,17.9H99.2v-4.7H110c0.6,0,1.1-0.1,1.6-0.4c0.5-0.3,1-0.7,1-2s-0.5-1.7-1-2
		c-0.5-0.2-1.1-0.4-1.7-0.3h-4.3c-1.3,0-2.6-0.4-3.8-1c-2.2-1.2-3.6-3.6-3.5-6.2c-0.1-2.6,1.2-5,3.5-6.2c1.2-0.6,2.5-1,3.8-1h10v4.7
		h-9.9c-0.5,0-1,0.2-1.5,0.4c-0.7,0.4-1.1,1.2-1,2c-0.1,0.8,0.3,1.6,1,2c0.5,0.2,1,0.4,1.5,0.4h4.3c1.3,0,2.6,0.3,3.8,0.9
		c2.3,1.2,3.8,3.6,3.6,6.2c0.1,2.6-1.3,5-3.6,6.2C112.6,17.7,111.3,18,110,17.9L110,17.9z"/>
	<path id="路径_00000074408333374050278280000012949431581642178953_" class="st0" d="M17.8,17.7c-0.7,0-1.4-0.2-1.9-0.8L4.4,3
		l0.1,14.8H0.1L0-3.5c0-1,0.6-1.8,1.5-2.1c1-0.4,2-0.1,2.7,0.7L15.6,9.1v-15h4.5l0.1,21.3c0,1-0.6,1.8-1.5,2.1
		C18.3,17.7,18.1,17.7,17.8,17.7L17.8,17.7z"/>
	
		<linearGradient id="路径_00000137123618284078469590000001247791836007865258_" gradientUnits="userSpaceOnUse" x1="-334.1404" y1="253.125" x2="-332.3949" y2="253.125" gradientTransform="matrix(23.796 0 0 -24 8001.4287 6081.0127)">
		<stop  offset="0" style="stop-color:#4190FF"/>
		<stop  offset="0.51" style="stop-color:#2EB9FA"/>
		<stop  offset="1" style="stop-color:#1BE1F6"/>
	</linearGradient>
	
		<path id="路径_00000016764820648784165130000000730725988205922973_" style="fill:url(#路径_00000137123618284078469590000001247791836007865258_);" d="
		M57.6,18c-5.4,0-10.2-3.6-11.6-8.9s0.9-10.8,5.6-13.5s10.6-2,14.5,1.9l0,0l3.2,3.2L66,4.1l-3.2-3.2C59.9-2,55.3-2,52.5,0.9
		c-2.8,2.8-2.8,7.4,0,10.3c2.8,2.8,7.4,2.8,10.3,0l3.3-3.3l3.4,3.3l-3.3,3.3C63.9,16.7,60.8,18,57.6,18L57.6,18z"/>
	
		<linearGradient id="形状_00000127039785970518439290000005836577156082908586_" gradientUnits="userSpaceOnUse" x1="-337.5129" y1="253.1182" x2="-336.0724" y2="253.1182" gradientTransform="matrix(28.8347 0 0 -23.9826 9782.3125 6076.4517)">
		<stop  offset="0" style="stop-color:#4190FF"/>
		<stop  offset="0.51" style="stop-color:#2EB9FA"/>
		<stop  offset="1" style="stop-color:#1BE1F6"/>
	</linearGradient>
	<path id="形状" style="fill:url(#形状_00000127039785970518439290000005836577156082908586_);" d="M84.9,18
		c-3.2,0-6.2-1.2-8.4-3.5l0,0L68,6l8.4-8.5c3.8-3.8,9.8-4.6,14.5-1.9c4.7,2.7,7,8.2,5.6,13.5S90.3,18,84.9,18L84.9,18z M79.8,11.2
		c1.4,1.3,3.2,2.1,5.1,2.1c3.3,0,6.2-2.2,7-5.4c0.9-3.2-0.5-6.5-3.4-8.2s-6.4-1.2-8.8,1.2L74.6,6L79.8,11.2z"/>
	<path id="路径_00000034782561768932667000000011426591717641333911_" class="st0" d="M27.2,17.8L34,0.1c0.1-0.2,0.2-0.5,0.3-0.7
		c0.1,0.2,0.2,0.4,0.3,0.6l6.9,17.8h5.1L39-1.7c-0.3-0.6-0.6-1.2-0.9-1.7c-1.3-2-2.8-2.4-3.8-2.4c-1.6,0.1-3,1-3.8,2.4
		c-0.4,0.6-0.7,1.2-0.9,1.8l-7.4,19.4H27.2z"/>
	<ellipse id="椭圆形" class="st3" cx="120.9" cy="15.9" rx="2.1" ry="2.1"/>
</g>
</svg>
